<?xml version="1.0" encoding="UTF-8"?>
<svg width="16px" height="16px" viewBox="0 0 16 16" version="1.1" xmlns="http://www.w3.org/2000/svg" xmlns:xlink="http://www.w3.org/1999/xlink">
    <title>刷新</title>
    <g id="算法演进" stroke="none" stroke-width="1" fill="none" fill-rule="evenodd">
        <g id="运行进度" transform="translate(-1196, -138)" fill="#287FFE">
            <g id="标签/标签样式/线性/蓝色备份" transform="translate(1114, 130)">
                <g id="刷新" transform="translate(82, 8)">
                    <rect id="矩形备份-47" opacity="0" x="0" y="0" width="16" height="16"></rect>
                    <g transform="translate(1, 1)" fill-rule="nonzero" id="形状">
                        <path d="M13.687955,2.5090426 C13.4660336,2.45080792 13.2393905,2.5845903 13.1811559,2.80808556 L12.8884085,3.93815317 C12.4650267,3.01269391 11.8496277,2.20999964 11.0595247,1.55525295 C9.67133584,0.403150598 7.91799975,-0.138274551 6.12216807,0.0301338529 C4.3263364,0.198542257 2.70363486,1.05474947 1.55153251,2.44451228 C-0.82507207,5.31217688 -0.426872759,9.57747384 2.44079184,11.9540784 C3.66372016,12.9676767 5.16995233,13.5091018 6.73914092,13.5091018 C6.95161881,13.5091018 7.16567062,13.4996584 7.37972242,13.4791975 C9.17555409,13.3107891 10.7998295,12.4545819 11.950358,11.0648191 C12.3060617,10.6367155 12.6066786,10.1676902 12.844339,9.67033455 C12.968678,9.41221326 12.8585042,9.10057902 12.6003829,8.97781401 C12.3422617,8.8534751 12.0306274,8.96364882 11.9078624,9.22177011 C11.7064019,9.64200417 11.4514284,10.0402035 11.1508115,10.4022028 C10.1765611,11.5779139 8.80253735,12.3034865 7.28371389,12.4451384 C5.76331652,12.5883643 4.27911909,12.1287825 3.10498199,11.154532 C0.678012284,9.1430746 0.339621566,5.53409824 2.35107895,3.10712853 C3.32532944,1.93141752 4.69935315,1.20584486 6.2181766,1.06419293 C7.73857397,0.922541003 9.2227714,1.38054891 10.3969085,2.35479939 C11.0516552,2.89779845 11.56475,3.55884079 11.9204537,4.31903947 L10.9886988,3.81381426 C10.7872383,3.70521445 10.5338387,3.77918823 10.4252389,3.98064875 C10.3150652,4.18210927 10.3906129,4.43550883 10.5920734,4.54410865 L12.7262958,5.70093273 C12.7892522,5.73555876 12.8569303,5.75129786 12.9246085,5.75129786 C13.072556,5.75129786 13.2157819,5.67260234 13.2897557,5.53409824 C13.2913296,5.53252433 13.2913296,5.53095042 13.2929035,5.5293765 C13.3322512,5.48373311 13.3621555,5.42864624 13.3794686,5.36568983 L13.9869979,3.01584173 C14.0436587,2.79392037 13.9098763,2.56727729 13.687955,2.5090426 L13.687955,2.5090426 Z M12.769635,4.71723878 L12.744635,4.81723878 L12.669635,4.76723878 C12.7113017,4.75723878 12.7363017,4.73723878 12.769635,4.71723878 L12.769635,4.71723878 Z"></path>
                    </g>
                </g>
            </g>
        </g>
    </g>
</svg>