<?xml version="1.0" encoding="UTF-8"?>
<svg width="175px" height="176px" viewBox="0 0 175 176" version="1.1" xmlns="http://www.w3.org/2000/svg" xmlns:xlink="http://www.w3.org/1999/xlink">
    <title>环形</title>
    <defs>
        <radialGradient cx="12.5835503%" cy="100%" fx="12.5835503%" fy="100%" r="144.346373%" gradientTransform="translate(0.1258, 1), scale(1, 0.9961), rotate(-90), scale(1, 2.4772), translate(-0.1258, -1)" id="radialGradient-1">
            <stop stop-color="#1DBCFF" stop-opacity="0.615712413" offset="0%"></stop>
            <stop stop-color="#33699F" stop-opacity="0.153900787" offset="37.5237707%"></stop>
            <stop stop-color="#001E35" stop-opacity="0.359484266" offset="100%"></stop>
        </radialGradient>
    </defs>
    <g id="算法演进" stroke="none" stroke-width="1" fill="none" fill-rule="evenodd">
        <g id="概况" transform="translate(-272, -609)" fill="url(#radialGradient-1)" stroke="#2761DD">
            <path d="M321.631787,710.000435 C323.965105,716.889029 328.101349,722.94606 333.479009,727.609439 C338.789267,732.214368 345.309849,735.460352 352.499656,736.80676 L352.499656,784.183035 C332.304496,782.468647 314.064768,773.894918 300.119237,760.801143 C286.103825,747.641757 276.425507,729.916858 273.459108,710.000435 Z M445.540892,710.000435 C442.652126,729.395626 433.398156,746.712506 419.97224,759.758627 C406.575853,772.776055 389.025653,781.541611 369.499719,783.876558 L369.499719,736.125531 C382.583716,732.623004 393.055643,722.732291 397.368213,710.000435 Z M352.499656,609.816965 L352.499656,657.19324 C343.883347,658.806784 336.228136,663.148471 330.465398,669.287773 C324.739076,675.38828 320.881456,683.263529 319.805667,691.999814 L272.640488,691.999814 C273.864529,670.272991 283.01545,650.665135 297.247307,636.021759 C311.514202,621.342332 330.887156,611.651673 352.499656,609.816965 Z M369.499719,610.123442 C390.428934,612.626196 409.088212,622.517074 422.795359,637.113085 C436.430659,651.632591 445.165628,670.808284 446.359512,691.999814 L399.194333,691.999814 C398.185616,683.808206 394.731125,676.373628 389.583623,670.449289 C384.366607,664.444946 377.410529,659.992155 369.499719,657.874469 Z" id="环形"></path>
        </g>
    </g>
</svg>